<svg xmlns="http://www.w3.org/2000/svg" xmlns:xlink="http://www.w3.org/1999/xlink" width="297" height="69" viewBox="0 0 297 69">
  <defs>
    <path id="dvideo_white-a" d="M31.4658278,0.0587431836 C30.1433136,0.0617597254 28.822419,0.347219844 27.8189537,0.915123541 L3.66792802,14.5843448 C1.65063239,15.7260265 0,18.5287115 0,20.8123924 L0,48.1503587 C0,50.4338809 1.65063239,53.2368833 3.66792802,54.3788826 L14.3618946,60.4313356 L27.8189537,68.0476275 C29.8362494,69.1896268 33.1375141,69.1896268 35.1546478,68.0476275 L59.3058355,54.3788826 C61.3237789,53.2368833 62.9737635,50.4338809 62.9737635,48.1503587 L62.9737635,20.8123924 C62.9737635,18.5287115 61.3237789,15.7260265 59.3058355,14.5843448 L35.1546478,0.915123541 C34.1513445,0.347219844 32.8304499,0.0617597254 31.5079357,0.0587431836 L31.4658278,0.0587431836 Z M29.529509,15.291962 C40.2582956,15.291962 49.1040463,23.9003787 49.1040463,34.4814549 C49.1040463,45.0625312 40.3230771,53.6706303 29.529509,53.6706303 L19.8952057,53.6706303 C16.5706195,53.6706303 13.8695553,51.7189277 13.8695553,47.7639238 L13.8695553,21.1989861 C13.8695553,17.937628 16.5660848,15.2933909 19.8926144,15.2921208 L19.8952057,41.8568998 C19.8952057,47.4086069 20.8324319,47.7639238 25.9206941,47.7639238 L29.529509,47.7663053 C37.0017301,47.7663053 43.0809871,41.8067299 43.0809871,34.4814549 C43.0809871,27.1560212 37.0017301,21.1964458 29.529509,21.1964458 L24.3609177,21.1988273 C24.3609177,18.2476968 26.6687584,15.291962 29.529509,15.291962 Z"/>
    <linearGradient id="dvideo_white-b" x1="0%" x2="128.105%" y1="-2.284%" y2="120.365%">
      <stop offset="0%" stop-color="#2DBFFF"/>
      <stop offset="57.74%" stop-color="#7875F5"/>
      <stop offset="100%" stop-color="#B543E9"/>
    </linearGradient>
    <path id="dvideo_white-d" d="M0,10.4635064 L0,31.698195 C0,33.9745838 1.69963018,36.76883 3.77680771,37.9072618 L12.0229824,42.4256949 L20.4857799,37.2013803 L20.4857799,37.201222 C17.062506,37.201222 14.2812626,35.2556163 14.2812626,31.3129673 L14.2812626,4.83101511 C14.2812626,2.8760715 15.2859989,1.14460429 16.8312082,0.0735952701 L16.8312082,0.0732787313 L0,10.4635064 Z"/>
    <linearGradient id="dvideo_white-e" x1="50%" x2="50%" y1="3.732%" y2="96.159%">
      <stop offset="0%" stop-color="#0099DA"/>
      <stop offset="100%" stop-color="#78C479"/>
    </linearGradient>
    <linearGradient id="dvideo_white-g" x1="0%" x2="128.105%" y1="-2.284%" y2="120.365%">
      <stop offset="0%" stop-color="#2DBFFF"/>
      <stop offset="57.265%" stop-color="#7875F5"/>
      <stop offset="100%" stop-color="#B543E9"/>
    </linearGradient>
  </defs>
  <g fill="none" fill-rule="evenodd">
    <mask id="dvideo_white-c" fill="#fff">
      <use xlink:href="#dvideo_white-a"/>
    </mask>
    <path fill="url(#dvideo_white-b)" d="M27.8189537,0.915123541 L3.66792802,14.5843448 C1.65063239,15.7260265 0,18.5287115 0,20.8123924 L0,48.1503587 C0,50.4338809 1.65063239,53.2368833 3.66792802,54.3788826 L14.3618946,60.4313356 L27.8189537,68.0476275 C29.8362494,69.1896268 33.1375141,69.1896268 35.1546478,68.0476275 L59.3058355,54.3788826 C61.3237789,53.2368833 62.9737635,50.4338809 62.9737635,48.1503587 L62.9737635,20.8123924 C62.9737635,18.5287115 61.3237789,15.7260265 59.3058355,14.5843448 L35.1546478,0.915123541 C34.1513445,0.347219844 32.8304499,0.0617597254 31.5079357,0.0587431836 C30.1433136,0.0617597254 28.822419,0.347219844 27.8189537,0.915123541 Z M29.529509,15.291962 C40.2582956,15.291962 49.1040463,23.9003787 49.1040463,34.4814549 C49.1040463,45.0625312 40.3230771,53.6706303 29.529509,53.6706303 L19.8952057,53.6706303 C16.5706195,53.6706303 13.8695553,51.7189277 13.8695553,47.7639238 L13.8695553,21.1989861 C13.8695553,17.937628 16.5660848,15.2933909 19.8926144,15.2921208 L19.8952057,41.8568998 C19.8952057,47.4086069 20.8324319,47.7639238 25.9206941,47.7639238 L29.529509,47.7663053 C37.0017301,47.7663053 43.0809871,41.8067299 43.0809871,34.4814549 C43.0809871,27.1560212 37.0017301,21.1964458 29.529509,21.1964458 L24.3609177,21.1988273 C24.3609177,18.2476968 26.6687584,15.291962 29.529509,15.291962 Z" mask="url(#dvideo_white-c)"/>
    <g transform="translate(0 17.617)">
      <mask id="dvideo_white-f" fill="#fff">
        <use xlink:href="#dvideo_white-d"/>
      </mask>
      <path fill="url(#dvideo_white-e)" d="M0,10.4635064 L0,31.698195 C0,33.9745838 1.69963018,36.76883 3.77680771,37.9072618 L12.0229824,42.4256949 L20.4857799,37.2013803 L20.4857799,37.201222 C17.062506,37.201222 14.2812626,35.2556163 14.2812626,31.3129673 L14.2812626,4.83101511 C14.2812626,2.8760715 15.2859989,1.14460429 16.8312082,0.0735952701 L16.8312082,0.0732787313 L0,10.4635064 Z" mask="url(#dvideo_white-f)"/>
    </g>
    <text fill="url(#dvideo_white-g)" font-family="Carbon-Light, Carbon" font-size="64" font-weight="300">
      <tspan x="69" y="60">video</tspan>
    </text>
  </g>
</svg>
